<svg width="24" height="27" viewBox="0 0 24 27" fill="none" xmlns="http://www.w3.org/2000/svg">
<path d="M22.9984 6.00204C22.6651 4.38338 19.9705 1.11751 11.8582 1.00325C3.74593 0.888996 1.24178 3.81209 1.00375 5.28792M22.9984 6.00204C22.9984 6.57328 21.713 10.1438 12.144 10.1438C2.57493 10.1438 0.908532 6.5257 1.00375 5.28792M22.9984 6.00204V12.1433M1.00375 5.28792V12.1433M1.00375 12.1433C2.00348 13.5716 5.71695 15.8567 11.8582 15.8567C19.7343 15.8567 22.9984 13.7144 22.9984 12.1433M1.00375 12.1433V17.1421M22.9984 12.1433V17.5706M1.00375 17.1421V21.1412C1.43221 22.8074 4.20296 26.1114 11.8582 25.9971C21.4273 25.8543 22.9984 22.5695 22.9984 21.1412C22.9984 19.7129 22.9984 17.5706 22.9984 17.5706M1.00375 17.1421C1.81302 18.5465 5.1169 21.3697 11.8582 21.1412C20.2849 20.8556 22.9984 18.3561 22.9984 17.5706" stroke="white"/>
<circle cx="19.5698" cy="12.5723" r="0.856934" fill="white"/>
<circle cx="19.5698" cy="17.7134" r="0.856934" fill="white"/>
<circle cx="19.5698" cy="22.2837" r="0.856934" fill="white"/>
</svg>
