<svg width="70" height="70" viewBox="0 0 70 70" fill="none" xmlns="http://www.w3.org/2000/svg">
<g id="Goal">
<path id="GoalContainer" d="M70 35C70 54.33 54.3299 70 35 70C15.67 70 -2.98319e-05 54.33 -2.98319e-05 35C-2.98319e-05 15.67 15.67 0 35 0C54.3299 0 70 15.67 70 35Z" fill="#D06618"/>
<path id="GoalIcon" d="M34.5305 17.2388C36.0977 17.2388 40.7465 28.5339 40.7465 28.5339C40.7465 28.5339 51.459 28.5339 52.8141 30.8209C54.1692 33.1078 44.5883 40.3575 44.5883 40.3575C44.5883 40.3575 47.9803 52.7612 46.0231 52.7612C44.0659 52.7612 34.5305 47.6648 34.5305 47.6648C34.5305 47.6648 24.4728 53.8059 23.038 52.7612C21.6032 51.7164 24.4728 40.3575 24.4728 40.3575C24.4728 40.3575 16.2469 32.9104 16.2469 30.8209C16.2469 28.7313 28.3145 28.5339 28.3145 28.5339C28.3145 28.5339 32.9634 17.2388 34.5305 17.2388Z" fill="white"/>
</g>
</svg>
