<svg width="880" height="247" viewBox="0 0 880 247" fill="none" xmlns="http://www.w3.org/2000/svg">
<g id="InfluencingArrow" filter="url(#filter0_d)">
<path d="M9.92289 107.793C-2.70716 113.243 88.7935 138.28 88.7935 138.28C376.24 216.32 621.749 216.924 664.924 218.105C768.427 220.938 840.344 165.315 846.503 166.242C852.662 167.168 851.436 171.594 856.782 172.69C862.128 173.786 880.612 129.433 873.784 127.717C866.956 126.001 803.503 129.102 803.027 132.261C802.552 135.421 813.749 137.992 812.503 141.036C811.258 144.079 771.473 156.489 729.984 160.96C494.691 186.319 255.426 134.931 9.92289 107.793Z" fill="#00B289"/>
</g>
<defs>
<filter id="filter0_d" x="0" y="0" width="879.941" height="276.434" filterUnits="userSpaceOnUse" color-interpolation-filters="sRGB">
<feFlood flood-opacity="0" result="BackgroundImageFix"/>
<feColorMatrix in="SourceAlpha" type="matrix" values="0 0 0 0 0 0 0 0 0 0 0 0 0 0 0 0 0 0 127 0" result="hardAlpha"/>
<feOffset dy="4"/>
<feGaussianBlur stdDeviation="2"/>
<feComposite in2="hardAlpha" operator="out"/>
<feColorMatrix type="matrix" values="0 0 0 0 0 0 0 0 0 0 0 0 0 0 0 0 0 0 0.25 0"/>
<feBlend mode="normal" in2="BackgroundImageFix" result="effect1_dropShadow"/>
<feBlend mode="normal" in="SourceGraphic" in2="effect1_dropShadow" result="shape"/>
</filter>
</defs>
</svg>
