<svg width="70" height="76" viewBox="0 0 70 76" fill="none" xmlns="http://www.w3.org/2000/svg">
<g id="InfluencedActor">
<g id="ExternalActor">
<circle id="External-Actor-Container" cx="35" cy="40.3918" r="35" fill="#1E4E79"/>
<g id="Person">
<path id="Body" d="M23.579 57.4619C23.579 51.9003 28.0876 47.3917 33.6492 47.3917H36.1053C41.6669 47.3917 46.1755 51.9003 46.1755 57.4619V57.4619H23.579V57.4619Z" fill="white"/>
<circle id="Head" cx="35" cy="39.1637" r="6.75439" fill="white"/>
</g>
</g>
<path id="Arrow 1" d="M21.1682 36.8772C21.7126 36.7842 22.0786 36.2675 21.9856 35.7231L20.4709 26.8515C20.3779 26.3071 19.8612 25.9411 19.3168 26.0341C18.7724 26.127 18.4064 26.6437 18.4994 27.1881L19.8458 35.074L11.96 36.4204C11.4155 36.5134 11.0496 37.0301 11.1425 37.5745C11.2355 38.1189 11.7522 38.4849 12.2966 38.3919L21.1682 36.8772ZM34.2928 28.0989C34.6833 28.4895 35.3165 28.4895 35.707 28.0989L42.071 21.735C42.4615 21.3445 42.4615 20.7113 42.071 20.3208C41.6805 19.9302 41.0473 19.9302 40.6568 20.3208L34.9999 25.9776L29.3431 20.3208C28.9525 19.9302 28.3194 19.9302 27.9288 20.3208C27.5383 20.7113 27.5383 21.3445 27.9288 21.735L34.2928 28.0989ZM49.0121 34.2358C48.9259 34.7814 49.2984 35.2934 49.8439 35.3796L58.7337 36.7833C59.2793 36.8694 59.7913 36.497 59.8775 35.9515C59.9636 35.4059 59.5912 34.8939 59.0457 34.8077L51.1436 33.56L52.3913 25.6579C52.4774 25.1124 52.105 24.6003 51.5595 24.5142C51.014 24.428 50.5019 24.8004 50.4158 25.346L49.0121 34.2358ZM8.42189 28.2076L20.4219 36.7074L21.5779 35.0754L9.57791 26.5756L8.42189 28.2076ZM33.9999 9.39183L33.9999 27.3918L35.9999 27.3918L35.9999 9.39183L33.9999 9.39183ZM60.4116 25.5831L49.4117 33.5831L50.588 35.2005L61.588 27.2006L60.4116 25.5831Z" fill="white"/>
</g>
</svg>
