<svg width="55" height="59" viewBox="0 0 55 59" fill="none" xmlns="http://www.w3.org/2000/svg">
<g id="Group 23">
<g id="Group 21">
<g id="PlusBtn_UnSelected" filter="url(#filter0_d)">
<rect id="PlusContainer" x="4" y="3.65381" width="45.6322" height="46.3857" rx="22.8161" fill="white"/>
</g>
</g>
<g id="PencilIcon">
<path id="Body3" d="M29.6377 31.1285L30.075 35.6729L46.6938 18.4043L44.0697 15.6777L29.6377 31.1285Z" fill="#4C9989"/>
<path id="Body2" d="M24.3887 25.6751L25.2633 30.2194L29.6367 31.1283L44.0687 15.6775L39.2581 10.6787L24.3887 25.6751Z" fill="#45B39C"/>
<path id="Body1" d="M24.389 25.6751L20.0156 25.2207L36.6344 7.95215L39.2584 10.6788L24.389 25.6751Z" fill="#4C9989"/>
<path id="Head2" d="M20.4521 36.5819V37.9452L28.7615 37.0363L28.3242 32.4919L20.4521 36.5819Z" fill="#BBAA80"/>
<path id="Punta" d="M17.8289 35.2178L17.3916 38.3988L20.4529 37.9444V36.5811L19.1409 35.2178H17.8289Z" fill="black"/>
<path id="Head1" d="M19.1406 35.2179L23.0766 27.0381L23.9513 31.5824L28.3247 32.4913L20.4526 36.5812L19.1406 35.2179Z" fill="#E3CB8F"/>
<path id="head4" d="M19.1411 35.2183L23.0771 27.0384L18.7038 26.584L17.8291 35.2183H19.1411Z" fill="#BBAA80"/>
<path id="Goma" fill-rule="evenodd" clip-rule="evenodd" d="M41.4863 2.70549L51.255 13.1303C51.5083 12.9534 51.7493 12.7492 51.9742 12.5178L52.5474 11.928C54.472 9.94778 54.4878 6.72189 52.5828 4.72281L49.5212 1.51008C47.6162 -0.489 44.5117 -0.504257 42.5871 1.47601L42.0139 2.06579C41.8183 2.26703 41.6425 2.48112 41.4863 2.70549Z" fill="#BA6F6F"/>
<path id="GomaIn" fill-rule="evenodd" clip-rule="evenodd" d="M44.9443 5.55907L48.9685 9.92493C49.0948 9.82962 49.2156 9.72238 49.3294 9.60321L51.0761 7.77491C52.2215 6.57589 52.2311 4.62284 51.0975 3.41264C49.9639 2.20244 48.1163 2.19337 46.9708 3.39238L45.2242 5.22069C45.1218 5.32782 45.0285 5.44097 44.9443 5.55907Z" fill="#E27676"/>
<rect id="metal1" width="4.99042" height="7.87335" rx="0.2" transform="matrix(0.692839 0.721092 -0.694001 0.719974 49.335 10.2031)" fill="#CCCFCF"/>
<rect id="metal2" width="6.95034" height="7.87335" rx="0.2" transform="matrix(0.692839 0.721092 -0.694001 0.719974 44.5459 5.21973)" fill="#FBFFFF"/>
<rect id="metal3" width="4.6759" height="7.87335" rx="0.2" transform="matrix(0.692839 0.721092 -0.694001 0.719974 41.3486 1.8894)" fill="#CACDCD"/>
<path id="HeadWhite" d="M20.0151 25.2207L18.7031 26.584L23.0765 27.0384L23.9511 31.5828L28.3245 32.4917L28.7618 37.036L30.0738 35.6727L29.6365 31.1284L25.2631 30.2195L24.3885 25.6751L20.0151 25.2207Z" fill="white" stroke="black" stroke-width="0.1"/>
</g>
</g>
<defs>
<filter id="filter0_d" x="0" y="3.65381" width="53.6322" height="54.3857" filterUnits="userSpaceOnUse" color-interpolation-filters="sRGB">
<feFlood flood-opacity="0" result="BackgroundImageFix"/>
<feColorMatrix in="SourceAlpha" type="matrix" values="0 0 0 0 0 0 0 0 0 0 0 0 0 0 0 0 0 0 127 0" result="hardAlpha"/>
<feOffset dy="4"/>
<feGaussianBlur stdDeviation="2"/>
<feComposite in2="hardAlpha" operator="out"/>
<feColorMatrix type="matrix" values="0 0 0 0 0 0 0 0 0 0 0 0 0 0 0 0 0 0 0.25 0"/>
<feBlend mode="normal" in2="BackgroundImageFix" result="effect1_dropShadow"/>
<feBlend mode="normal" in="SourceGraphic" in2="effect1_dropShadow" result="shape"/>
</filter>
</defs>
</svg>
