<svg width="35" height="36" viewBox="0 0 35 36" fill="none" xmlns="http://www.w3.org/2000/svg">
<g filter="url(#filter0_d)">
<rect x="4" y="1.95361" width="26.5553" height="26.0465" rx="13.0233" fill="white"/>
</g>
<path d="M18.9194 17.381L19.1739 19.9328L28.8451 10.2361L27.3181 8.70508L18.9194 17.381Z" fill="#4C9989"/>
<path d="M15.8652 14.3192L16.3742 16.871L18.9193 17.3813L27.3179 8.70536L24.5184 5.89844L15.8652 14.3192Z" fill="#45B39C"/>
<path d="M15.8654 14.319L13.3203 14.0638L22.9915 4.36719L24.5185 5.89824L15.8654 14.319Z" fill="#4C9989"/>
<path d="M13.5752 20.4431V21.2086L18.4108 20.6982L18.1563 18.1465L13.5752 20.4431Z" fill="#BBAA80"/>
<path d="M12.048 19.6777L11.7935 21.464L13.575 21.2088V20.4433L12.8115 19.6777H12.048Z" fill="black"/>
<path d="M12.8115 19.6776L15.1021 15.0845L15.6111 17.6362L18.1561 18.1466L13.575 20.4431L12.8115 19.6776Z" fill="#E3CB8F"/>
<path d="M12.8123 19.6779L15.1029 15.0848L12.5578 14.8296L12.0488 19.6779H12.8123Z" fill="#BBAA80"/>
<path fill-rule="evenodd" clip-rule="evenodd" d="M25.8438 1.45154L31.4664 7.24124C31.6867 7.1123 31.8946 6.95368 32.0843 6.76534C33.2964 5.56193 33.3061 3.6012 32.1059 2.38593L30.6559 0.917783C29.4557 -0.29749 27.5001 -0.307106 26.288 0.896305C26.1156 1.0675 25.9675 1.25402 25.8438 1.45154Z" fill="#BA6F6F"/>
<path fill-rule="evenodd" clip-rule="evenodd" d="M27.8267 3.02348L30.1677 5.4758C30.2413 5.42222 30.3118 5.36191 30.3781 5.29488L31.3954 4.26739C32.0618 3.59436 32.0672 2.49787 31.4075 1.81832C30.7478 1.13876 29.6728 1.13348 29.0064 1.80651L27.9891 2.834C27.9297 2.89399 27.8756 2.95735 27.8267 3.02348Z" fill="#E27676"/>
<rect width="2.8516" height="4.49921" rx="0.2" transform="matrix(0.705604 0.708607 -0.706747 0.707467 30.3828 5.63135)" fill="#CCCFCF"/>
<rect width="3.97153" height="4.49921" rx="0.2" transform="matrix(0.705604 0.708607 -0.706747 0.707467 27.5957 2.83301)" fill="#FBFFFF"/>
<rect width="2.67188" height="4.49921" rx="0.2" transform="matrix(0.705604 0.708607 -0.706747 0.707467 25.7339 0.962891)" fill="#CACDCD"/>
<path d="M13.3206 14.064L12.5571 14.8295L15.1022 15.0847L15.6112 17.6364L18.1562 18.1468L18.4107 20.6985L19.1742 19.933L18.9197 17.3812L16.3747 16.8709L15.8657 14.3191L13.3206 14.064Z" fill="white"/>
<defs>
<filter id="filter0_d" x="0" y="1.95361" width="34.5552" height="34.0464" filterUnits="userSpaceOnUse" color-interpolation-filters="sRGB">
<feFlood flood-opacity="0" result="BackgroundImageFix"/>
<feColorMatrix in="SourceAlpha" type="matrix" values="0 0 0 0 0 0 0 0 0 0 0 0 0 0 0 0 0 0 127 0" result="hardAlpha"/>
<feOffset dy="4"/>
<feGaussianBlur stdDeviation="2"/>
<feComposite in2="hardAlpha" operator="out"/>
<feColorMatrix type="matrix" values="0 0 0 0 0 0 0 0 0 0 0 0 0 0 0 0 0 0 0.25 0"/>
<feBlend mode="normal" in2="BackgroundImageFix" result="effect1_dropShadow"/>
<feBlend mode="normal" in="SourceGraphic" in2="effect1_dropShadow" result="shape"/>
</filter>
</defs>
</svg>
