<svg width="70" height="70" viewBox="0 0 70 70" fill="none" xmlns="http://www.w3.org/2000/svg">
<g id="Tactic">
<path id="TacticContainer" d="M70 35C70 54.33 54.3299 70 35 70C15.67 70 -2.98319e-05 54.33 -2.98319e-05 35C-2.98319e-05 15.67 15.67 0 35 0C54.3299 0 70 15.67 70 35Z" fill="#82B75E"/>
<g id="Horse">
<path id="Vector 3" d="M42.1241 42.0373H28.6241C26.6241 40.0373 36.1241 30.5373 35.6241 29.5373C35.3759 29.0409 34.3181 29.4612 32.9939 29.0013C32.2735 28.7132 32.9939 29.0013 30.9939 28.0013C30.9939 28.0013 28.551 29.2587 27.9939 29.5373C26.9939 30.0373 26.4939 30.0013 24.9019 29.5373C24.0383 29.2856 23.4018 28.0013 24.9019 26.5013C26.9996 24.4038 30.3883 20.1279 33.5061 18.5C34.0183 17.9261 35.5061 16 36.0061 16C36.5061 16 37.5061 17.5 37.5061 17.5C37.6616 17.6554 38.7426 17.8061 39.5061 18.5C40.1729 19.1059 40.7229 19.71 41.5061 20.5C42.7102 21.7145 43.6163 23.5216 44.1241 24.5373C44.7908 26.704 44.9939 31.5013 43.9939 33.5013C43.0994 35.2902 42.6241 35.5373 42.6241 38.0373C42.6241 38.0373 43.1241 42.0373 42.1241 42.0373Z" fill="#FFFCFC"/>
<rect id="Rectangle 5" x="24" y="48.5367" width="23" height="6" rx="2" fill="white"/>
<rect id="Rectangle 6" x="27" y="43.5367" width="17" height="4" rx="1" fill="white"/>
</g>
</g>
</svg>
